<svg width="219" height="40" viewBox="0 0 219 40" fill="none" xmlns="http://www.w3.org/2000/svg">
<path d="M6.39603 37.568C4.31603 37.568 2.86003 37.2907 2.02803 36.736C1.23069 36.1467 0.832031 35.4187 0.832031 34.552C0.832031 33.7547 1.07469 33.044 1.56003 32.42C2.08003 31.796 2.84269 31.484 3.84803 31.484C4.47203 31.484 5.02669 31.6574 5.51203 32.004C5.99736 32.3507 6.46536 32.732 6.91603 33.148C7.40136 33.564 7.92136 33.9454 8.47603 34.292C9.06536 34.6387 9.75869 34.812 10.556 34.812C12.2547 34.812 13.6934 34.5 14.872 33.876C16.0507 33.252 16.952 32.3507 17.576 31.172C18.2 29.9587 18.512 28.5027 18.512 26.804C18.512 25.0707 18.1134 23.7534 17.316 22.852C16.5534 21.916 15.444 21.2574 13.988 20.876C12.532 20.46 10.7987 20.2 8.78803 20.096C8.12936 20.0614 7.64403 20.044 7.33203 20.044C7.02003 20.044 6.74269 20.044 6.50003 20.044L5.98003 18.952L10.972 4.028H27.248L25.74 9.072H12.064L10.244 14.688C11.7 14.688 13.26 14.8094 14.924 15.052C16.588 15.2947 18.148 15.7454 19.604 16.404C21.06 17.0627 22.2387 18.016 23.14 19.264C24.076 20.4774 24.544 22.0894 24.544 24.1C24.544 26.388 24.0587 28.3814 23.088 30.08C22.1174 31.744 20.7827 33.1307 19.084 34.24C17.3854 35.3494 15.444 36.1814 13.26 36.736C11.076 37.2907 8.78803 37.568 6.39603 37.568ZM34.8981 36.788H23.5101L23.9261 34.812C24.8275 34.812 25.6075 34.6734 26.2661 34.396C26.9248 34.084 27.6008 33.5294 28.2941 32.732C28.9875 31.9 29.8541 30.704 30.8941 29.144L48.6781 2.364H52.5261L56.6861 29.976C56.9635 31.64 57.4141 32.8707 58.0381 33.668C58.6968 34.4307 59.6848 34.812 61.0021 34.812L60.6901 36.788H45.2981L45.7141 34.812C46.3381 34.812 46.9275 34.76 47.4821 34.656C48.0715 34.5174 48.5568 34.24 48.9381 33.824C49.3195 33.3734 49.5101 32.6627 49.5101 31.692C49.5101 31.3107 49.4928 30.912 49.4581 30.496C49.4581 30.08 49.4408 29.6987 49.4061 29.352L48.8341 25.036L48.7301 23.788L47.1701 9.488H46.9621L37.6541 23.788L36.9781 25.036L33.7021 30.08C33.3901 30.6 33.0781 31.1547 32.7661 31.744C32.4541 32.3334 32.2981 32.888 32.2981 33.408C32.2981 33.9627 32.5061 34.344 32.9221 34.552C33.3728 34.7254 34.1528 34.812 35.2621 34.812L34.8981 36.788ZM49.5101 25.66H35.8861L37.3421 23.164H49.3021L49.5101 25.66ZM77.8095 36.788H61.9495L62.3655 34.812C63.8215 34.812 64.8962 34.6907 65.5895 34.448C66.3175 34.1707 66.8548 33.668 67.2015 32.94C67.5482 32.1774 67.8775 31.0507 68.1895 29.56L72.2455 9.956C72.5228 8.56934 72.6442 7.49467 72.6095 6.732C72.6095 5.96934 72.3148 5.432 71.7255 5.12C71.1362 4.77334 70.0615 4.6 68.5015 4.6L68.9175 2.624H85.0375L84.6215 4.6C83.0962 4.6 81.9522 4.77334 81.1895 5.12C80.4615 5.432 79.9415 5.98667 79.6295 6.784C79.3175 7.54667 79.0055 8.604 78.6935 9.956L74.6375 29.612C74.3602 31.1027 74.2215 32.2294 74.2215 32.992C74.2562 33.72 74.5682 34.2054 75.1575 34.448C75.7815 34.6907 76.8042 34.812 78.2255 34.812L77.8095 36.788ZM104.489 36.788H88.0052L88.4212 34.812C89.8772 34.812 90.9865 34.708 91.7492 34.5C92.5118 34.2574 93.0838 33.7547 93.4652 32.992C93.8465 32.2294 94.1932 31.068 94.5052 29.508L99.7052 4.392H106.153L101.005 29.508C100.693 31.068 100.572 32.2294 100.641 32.992C100.71 33.7547 101.074 34.2574 101.733 34.5C102.392 34.708 103.449 34.812 104.905 34.812L104.489 36.788ZM88.1612 12.452H85.9252L88.4212 2.624H118.321L116.657 12.452H114.421C114.421 10.5454 114.317 9.072 114.109 8.032C113.936 6.992 113.433 6.264 112.601 5.848C111.804 5.432 110.452 5.224 108.545 5.224H96.9492C95.5625 5.224 94.4185 5.34534 93.5172 5.588C92.6158 5.796 91.8705 6.17734 91.2812 6.732C90.6918 7.28667 90.1718 8.032 89.7212 8.968C89.2705 9.86934 88.7505 11.0307 88.1612 12.452ZM143.153 36.788H114.813L115.229 34.812C116.407 34.812 117.343 34.708 118.037 34.5C118.765 34.292 119.337 33.8934 119.753 33.304C120.203 32.68 120.567 31.744 120.845 30.496L125.213 9.384C125.49 8.06667 125.594 7.07867 125.525 6.42C125.455 5.72667 125.091 5.25867 124.433 5.016C123.809 4.77334 122.786 4.652 121.365 4.652L121.781 2.624H149.653L148.145 11.724H145.857C145.961 10.0947 145.874 8.82934 145.597 7.928C145.319 6.992 144.713 6.35067 143.777 6.004C142.841 5.62267 141.367 5.432 139.357 5.432H132.493L126.565 34.032H132.649C134.451 34.032 135.925 33.928 137.069 33.72C138.247 33.512 139.218 33.148 139.981 32.628C140.743 32.0734 141.437 31.328 142.061 30.392C142.685 29.456 143.378 28.2427 144.141 26.752H146.325L143.153 36.788ZM141.073 25.296H138.993C139.305 23.84 139.391 22.7827 139.253 22.124C139.149 21.4307 138.715 20.98 137.953 20.772C137.19 20.564 135.977 20.46 134.313 20.46H128.697L129.165 17.964H134.833C136.497 17.964 137.745 17.86 138.577 17.652C139.443 17.444 140.067 17.0107 140.449 16.352C140.83 15.6587 141.159 14.636 141.437 13.284H143.569L141.073 25.296ZM164.422 37.412C161.302 37.412 158.771 36.8574 156.83 35.748C154.889 34.604 153.485 33.0614 152.618 31.12C151.751 29.144 151.318 26.9427 151.318 24.516C151.318 20.9454 151.855 17.7734 152.93 15C154.005 12.192 155.495 9.81734 157.402 7.876C159.343 5.93467 161.597 4.47867 164.162 3.508C166.762 2.50267 169.553 2 172.534 2C174.267 2 175.619 2.13867 176.59 2.416C177.561 2.69334 178.323 2.988 178.878 3.3C179.433 3.612 179.953 3.768 180.438 3.768C180.923 3.768 181.305 3.59467 181.582 3.248C181.894 2.86667 182.189 2.45067 182.466 2H184.39L181.79 14.48H179.658C179.693 11.152 179.034 8.67334 177.682 7.044C176.365 5.41467 174.441 4.6 171.91 4.6C169.761 4.6 167.837 5.08534 166.138 6.056C164.439 6.992 162.983 8.32667 161.77 10.06C160.591 11.7587 159.673 13.7347 159.014 15.988C158.39 18.2067 158.078 20.5987 158.078 23.164C158.078 26.7 158.875 29.2134 160.47 30.704C162.065 32.1947 164.405 32.94 167.49 32.94C169.085 32.94 170.523 32.7667 171.806 32.42C173.089 32.0387 174.302 31.4667 175.446 30.704C176.625 29.9414 177.786 29.0227 178.93 27.948L180.126 29.196C178.878 30.652 177.509 32.004 176.018 33.252C174.562 34.5 172.898 35.5054 171.026 36.268C169.154 37.0307 166.953 37.412 164.422 37.412Z" fill="white" fill-opacity="0.3"/>
<path d="M5.72 35.62C3.50133 35.62 1.99333 35.308 1.196 34.684C0.398667 34.0254 0 33.2627 0 32.396C0 31.4947 0.277334 30.7147 0.832 30.056C1.38666 29.3627 2.21866 29.016 3.328 29.016C4.02133 29.016 4.61066 29.2067 5.096 29.588C5.616 29.9694 6.10133 30.4027 6.552 30.888C7.03733 31.3734 7.55733 31.8067 8.112 32.188C8.66666 32.5694 9.34266 32.76 10.14 32.76C11.9427 32.76 13.3987 32.4654 14.508 31.876C15.652 31.252 16.484 30.3854 17.004 29.276C17.5587 28.1667 17.836 26.884 17.836 25.428C17.836 23.7294 17.4374 22.4467 16.64 21.58C15.8427 20.6787 14.716 20.072 13.26 19.76C11.804 19.4134 10.0707 19.2054 8.06 19.136C7.40133 19.1014 6.95066 19.084 6.708 19.084C6.5 19.084 6.20533 19.084 5.824 19.084L5.252 17.784L10.816 2.028H27.664L26 7.54H11.908L10.036 12.896C11.5267 12.896 13.1214 13.0174 14.82 13.26C16.5534 13.468 18.1827 13.9014 19.708 14.56C21.2334 15.184 22.4814 16.1374 23.452 17.42C24.4227 18.668 24.908 20.332 24.908 22.412C24.908 24.7347 24.3707 26.728 23.296 28.392C22.2214 30.056 20.7654 31.4254 18.928 32.5C17.0907 33.5747 15.028 34.3547 12.74 34.84C10.452 35.36 8.112 35.62 5.72 35.62ZM35.3141 34.788H23.6661L24.1341 32.552C25.0008 32.552 25.7635 32.4134 26.4221 32.136C27.0461 31.8587 27.6701 31.356 28.2941 30.628C28.9528 29.9 29.7155 28.86 30.5821 27.508L48.2621 0.363999H53.0981L57.2581 27.612C57.5355 29.276 58.0208 30.524 58.7141 31.356C59.4075 32.1534 60.3435 32.552 61.5221 32.552L61.2101 34.788H44.8821L45.4021 32.552C45.8528 32.552 46.3555 32.5 46.9101 32.396C47.4648 32.292 47.9328 32.0147 48.3141 31.564C48.7301 31.1134 48.9381 30.3854 48.9381 29.38C48.9381 28.9987 48.9381 28.5827 48.9381 28.132C48.9381 27.6814 48.9035 27.2827 48.8341 26.936L48.2621 23.14L48.1581 21.788L46.7541 8.164H46.5461L37.8621 21.788L37.1341 23.14L34.2741 27.612C33.9621 28.132 33.6328 28.7214 33.2861 29.38C32.9395 30.0387 32.7661 30.6454 32.7661 31.2C32.7661 31.7547 32.9915 32.1187 33.4421 32.292C33.8928 32.4654 34.6555 32.552 35.7301 32.552L35.3141 34.788ZM49.0421 23.816H35.9381L37.4981 21.112H48.7821L49.0421 23.816ZM79.1493 34.788H62.3013L62.8213 32.552C64.312 32.552 65.404 32.4307 66.0973 32.188C66.8253 31.9107 67.3453 31.408 67.6573 30.68C68.004 29.9174 68.3333 28.7907 68.6453 27.3L72.5973 8.216C72.8746 6.82934 72.996 5.75467 72.9613 4.992C72.9613 4.22934 72.6666 3.692 72.0773 3.38C71.488 3.03334 70.448 2.86 68.9573 2.86L69.4253 0.624002H86.4813L86.0653 2.86C84.54 2.86 83.396 3.03334 82.6333 3.38C81.9053 3.692 81.3853 4.24667 81.0733 5.044C80.7613 5.80667 80.4493 6.864 80.1373 8.216L76.1853 27.3C75.908 28.756 75.752 29.8654 75.7173 30.628C75.7173 31.3907 76.012 31.9107 76.6013 32.188C77.1906 32.4307 78.196 32.552 79.6173 32.552L79.1493 34.788ZM106.796 34.788H89.3242L89.7922 32.552C91.2829 32.552 92.4096 32.448 93.1722 32.24C93.9349 31.9974 94.5069 31.4947 94.8882 30.732C95.2696 29.9694 95.6162 28.808 95.9282 27.248L101.024 2.704H108.564L103.468 27.248C103.156 28.808 103.018 29.9694 103.052 30.732C103.122 31.4947 103.486 31.9974 104.144 32.24C104.803 32.448 105.843 32.552 107.264 32.552L106.796 34.788ZM89.6362 10.92H87.0882L89.7922 0.624002H120.784L119.12 10.92H116.52C116.52 9.048 116.416 7.57467 116.208 6.5C116.035 5.42534 115.532 4.66267 114.7 4.212C113.903 3.76134 112.551 3.536 110.644 3.536H98.5282C97.1416 3.536 95.9976 3.65734 95.0962 3.9C94.1949 4.14267 93.4322 4.55867 92.8082 5.148C92.2189 5.70267 91.6816 6.448 91.1962 7.384C90.7456 8.32 90.2256 9.49867 89.6362 10.92ZM146.266 34.788H117.094L117.614 32.552C118.758 32.552 119.694 32.4654 120.422 32.292C121.15 32.084 121.722 31.6854 122.138 31.096C122.589 30.472 122.953 29.5187 123.23 28.236L127.494 7.592C127.772 6.27467 127.876 5.28667 127.806 4.628C127.737 3.96934 127.39 3.51867 126.766 3.276C126.142 3.03334 125.137 2.912 123.75 2.912L124.218 0.624002H152.818L151.206 10.036H148.554C148.624 8.476 148.537 7.24534 148.294 6.344C148.086 5.44267 147.549 4.81867 146.682 4.472C145.816 4.09067 144.429 3.9 142.522 3.9H135.814L130.042 31.616H136.022C137.686 31.616 139.073 31.512 140.182 31.304C141.326 31.096 142.28 30.732 143.042 30.212C143.84 29.692 144.55 28.9814 145.174 28.08C145.798 27.144 146.457 25.9654 147.15 24.544H149.646L146.266 34.788ZM144.186 23.452H141.794C142.106 21.996 142.228 20.9387 142.158 20.28C142.089 19.5867 141.673 19.1534 140.91 18.98C140.182 18.772 138.969 18.668 137.27 18.668H132.018L132.538 15.86H137.842C139.541 15.86 140.789 15.7734 141.586 15.6C142.418 15.4267 143.008 15.028 143.354 14.404C143.701 13.78 144.013 12.792 144.29 11.44H146.682L144.186 23.452ZM167.78 35.412C164.66 35.412 162.112 34.8574 160.136 33.748C158.16 32.6387 156.704 31.1134 155.768 29.172C154.866 27.196 154.416 24.96 154.416 22.464C154.416 18.928 154.936 15.7734 155.976 13C157.05 10.2267 158.558 7.86934 160.5 5.928C162.441 3.98667 164.746 2.51334 167.416 1.508C170.085 0.502667 173.014 0 176.204 0C177.902 0 179.22 0.138667 180.156 0.416001C181.126 0.693333 181.889 0.987999 182.444 1.3C183.033 1.57734 183.57 1.716 184.056 1.716C184.61 1.716 185.026 1.52534 185.304 1.144C185.581 0.762667 185.806 0.381333 185.98 0H188.216L185.512 12.792H183.12C183.085 9.53334 182.426 7.05467 181.144 5.356C179.861 3.65734 177.954 2.808 175.424 2.808C173.205 2.808 171.264 3.31067 169.6 4.316C167.936 5.28667 166.549 6.63867 165.44 8.372C164.365 10.1054 163.55 12.064 162.996 14.248C162.476 16.432 162.216 18.72 162.216 21.112C162.216 24.648 162.996 27.0747 164.556 28.392C166.116 29.7094 168.334 30.368 171.212 30.368C172.91 30.368 174.401 30.1774 175.684 29.796C177.001 29.38 178.214 28.7907 179.324 28.028C180.468 27.2307 181.629 26.2774 182.808 25.168L184.108 26.624C182.825 28.08 181.438 29.484 179.948 30.836C178.457 32.188 176.724 33.2974 174.748 34.164C172.806 34.996 170.484 35.412 167.78 35.412Z" fill="white"/>
</svg>
